<svg xmlns="http://www.w3.org/2000/svg" width="800" height="600"><style></style><rect class="boundary" x="0" y="0" fill="#000" width="800" height="600" data-type="pcb_background" data-pcb-layer="global"/><rect class="pcb-boundary" fill="none" stroke="#fff" stroke-width="0.3" x="100" y="100" width="600" height="400" data-type="pcb_boundary" data-pcb-layer="global"/><path class="pcb-board" d="M 100 500 L 700 500 L 700 100 L 100 100 Z" fill="none" stroke="rgba(255, 255, 255, 0.5)" stroke-width="10" data-type="pcb_board" data-pcb-layer="board"/><rect class="pcb-pad" fill="rgb(200, 52, 52)" x="222" y="268" width="54" height="64" data-type="pcb_smtpad" data-pcb-layer="top"/><rect class="pcb-pad" fill="rgb(200, 52, 52)" x="324" y="268" width="54" height="64" data-type="pcb_smtpad" data-pcb-layer="top"/><rect class="pcb-pad" fill="rgb(200, 52, 52)" x="432" y="268" width="54" height="64" data-type="pcb_smtpad" data-pcb-layer="top"/><rect class="pcb-pad" fill="rgb(200, 52, 52)" x="534" y="268" width="54" height="64" data-type="pcb_smtpad" data-pcb-layer="top"/><rect x="177" y="203" width="225.99999999999997" height="194" class="pcb-courtyard-rect pcb-courtyard-top" data-pcb-courtyard-rect-id="crtyd_u1" data-type="pcb_courtyard_rect" data-pcb-layer="top" fill="none" stroke="#FF00FF" stroke-width="5"/><rect x="387" y="203" width="225.99999999999997" height="194" class="pcb-courtyard-rect pcb-courtyard-top" data-pcb-courtyard-rect-id="crtyd_u2" data-type="pcb_courtyard_rect" data-pcb-layer="top" fill="none" stroke="#FF00FF" stroke-width="5"/><rect x="395" y="295" width="10" height="10" fill="red" transform="rotate(45 400 300)" data-type="pcb_courtyard_overlap_error" data-pcb-layer="overlay"/><text x="400" y="285" fill="red" font-family="sans-serif" font-size="12" text-anchor="middle" data-type="pcb_courtyard_overlap_error" data-pcb-layer="overlay">courtyard of U1 overlaps with courtyard of U2</text><rect x="295" y="295" width="10" height="10" fill="red" transform="rotate(45 300 300)" data-type="pcb_courtyard_overlap_error" data-pcb-layer="overlay"/><rect x="495" y="295" width="10" height="10" fill="red" transform="rotate(45 500 300)" data-type="pcb_courtyard_overlap_error" data-pcb-layer="overlay"/><line x1="300" y1="300" x2="500" y2="300" stroke="red" stroke-width="1.5" stroke-dasharray="4,3" data-type="pcb_courtyard_overlap_error" data-pcb-layer="overlay"/></svg>