
      <svg xmlns="http://www.w3.org/2000/svg" viewBox="-2.5 -3.5 5.3 7" width="1200" height="600">
      <style>
      .component { fill: none; stroke: red; stroke-width: 0.05; }
      .component-pin { fill: none; stroke: blue; stroke-width: 0.05; }
      .trace { stroke: green; stroke-width: 0.05; fill: none; }
      .text { font-family: Arial, sans-serif; font-size: 0.2px; }
      .net-label { font-family: Arial, sans-serif; font-size: 0.2px; fill: gray; }
    </style>
        
      <g transform="translate(-1, 0) rotate(0)">
        <rect 
          class="component" 
          x="-0.5" 
          y="-0.15" 
          width="1" 
          height="0.3" 
        />
        <rect 
        class="component-pin"
          x="-0.6" 
          y="-0.1" 
          width="0.2" 
          height="0.2" 
        />
        <rect 
          class="component-pin"
          x="0.4" 
          y="-0.1" 
          width="0.2" 
          height="0.2" 
        />
      </g>
    

      <g transform="translate(0, 2) rotate(90)">
        <rect 
          class="component" 
          x="-0.5" 
          y="-0.15" 
          width="1" 
          height="0.3" 
        />
        <rect 
        class="component-pin"
          x="-0.6" 
          y="-0.1" 
          width="0.2" 
          height="0.2" 
        />
        <rect 
          class="component-pin"
          x="0.4" 
          y="-0.1" 
          width="0.2" 
          height="0.2" 
        />
      </g>
    

      <g transform="translate(0, -2) rotate(-90)">
        <rect 
          class="component" 
          x="-0.5" 
          y="-0.15" 
          width="1" 
          height="0.3" 
        />
        <rect 
        class="component-pin"
          x="-0.6" 
          y="-0.1" 
          width="0.2" 
          height="0.2" 
        />
        <rect 
          class="component-pin"
          x="0.4" 
          y="-0.1" 
          width="0.2" 
          height="0.2" 
        />
      </g>
    
<path class="trace" d="M -0.5 0 L -0.32 0" />
<path class="trace" d="M 0 1.4 L 0 0.19999999999999973 L 0.9000000000000001 0.19999999999999973 L 0.9000000000000001 -1.3000000000000003 L 0 -1.3000000000000003 M -3.061616997868383e-17 1.5 L 0 1.4 M -3.061616997868383e-17 -1.5 L 0 -1.3000000000000003" />

      <text 
        class="text" 
        x="-1.2" 
        y="-0.5" 
        text-anchor="start"
      >R1</text>
    

      <text 
        class="text" 
        x="-1.2" 
        y="-0.3" 
        text-anchor="start"
      >100</text>
    

      <text 
        class="text" 
        x="0.3" 
        y="1.8" 
        text-anchor="start"
      >R2</text>
    

      <text 
        class="text" 
        x="0.3" 
        y="2" 
        text-anchor="start"
      >100</text>
    

      <text 
        class="text" 
        x="-0.3" 
        y="-1.8" 
        text-anchor="start"
      >R3</text>
    

      <text 
        class="text" 
        x="-0.3" 
        y="-2" 
        text-anchor="start"
      >100</text>
    

    <g class="net-label">
      
    <line 
      x1="1.1" 
      y1="0" 
      x2="0.30000000000000004" 
      y2="0" 
      stroke="green" 
      stroke-width="0.05"
    />
  
      <path d="
      M 1.1,-0.15
      L -0.24999999999999997,-0.15
      L -0.39999999999999997,0
      L -0.24999999999999997,0.15
      L 1.1,0.15
      Z
    " fill="white" stroke="black" stroke-width="0.02"/>
      <text 
        x="0.35000000000000003" 
        y="0" 
        text-anchor="middle" 
        dominant-baseline="central"
        fill="black"
      >LONGLONG</text>
    </g>
  
      </svg>
    