<svg xmlns="http://www.w3.org/2000/svg" width="400" height="300" viewBox="0 0 400 300" data-simulation-experiment-id="exp-current-test" data-simulation-experiment-name="Transient Current Sweep"><style>
:root { color-scheme: light; }
svg { font-family: 'Inter', 'Helvetica Neue', Arial, sans-serif; }
.background { fill: rgb(245, 241, 237); }
.plot-background { fill: #ffffff; }
.grid-line { stroke: rgba(0, 0, 0, 0.08); stroke-width: 1; }
.axis { stroke: rgba(0, 0, 0, 0.6); stroke-width: 1.5; }
.axis-tick { stroke: rgba(0, 0, 0, 0.6); stroke-width: 1; }
.axis-label { fill: rgba(0, 0, 0, 0.75); font-size: 12px; }
.axis-title { fill: rgba(0, 0, 0, 0.9); font-size: 14px; font-weight: 600; }
.legend-label { fill: rgba(0, 0, 0, 0.75); font-size: 11px; }
.legend-line { stroke-width: 3; }
.simulation-line { fill: none; stroke-width: 2.5; }
.simulation-point { stroke-width: 0; }
.chart-title { fill: rgba(0, 0, 0, 0.85); font-size: 18px; font-weight: 600; }
</style><rect class="background" x="0" y="0" width="400" height="300"/><defs><clipPath id="simulation-graph-exp-current-test"><rect x="100" y="64" width="200" height="156"/></clipPath></defs><rect class="plot-background" x="100" y="64" width="200" height="156"/><g class="grid"><line class="grid-line grid-line-x" x1="100" y1="64" x2="100" y2="220"/><line class="grid-line grid-line-x" x1="166.666667" y1="64" x2="166.666667" y2="220"/><line class="grid-line grid-line-x" x1="233.333333" y1="64" x2="233.333333" y2="220"/><line class="grid-line grid-line-x" x1="300" y1="64" x2="300" y2="220"/><line class="grid-line grid-line-y" x1="100" y1="220" x2="300" y2="220"/><line class="grid-line grid-line-y" x1="100" y1="194" x2="300" y2="194"/><line class="grid-line grid-line-y" x1="100" y1="168" x2="300" y2="168"/><line class="grid-line grid-line-y" x1="100" y1="142" x2="300" y2="142"/><line class="grid-line grid-line-y" x1="100" y1="116" x2="300" y2="116"/><line class="grid-line grid-line-y" x1="100" y1="90" x2="300" y2="90"/><line class="grid-line grid-line-y" x1="100" y1="64" x2="300" y2="64"/></g><g class="data-series"><path class="simulation-line" d="M 100 194 L 166.666667 116 L 233.333333 142 L 300 90" stroke="#b00020" clip-path="url(#simulation-graph-exp-current-test)" data-simulation-transient-current-graph-id="current-graph-load" data-source-component-id="ammeter-1" data-source-probe-id="simulation_current_probe_load" data-source-probe-name="LOAD_CURRENT" stroke-dasharray="4 8" stroke-dashoffset="0"/><path class="simulation-line" d="M 100 194 L 166.666667 116 L 233.333333 142 L 300 90" stroke="#b00020" clip-path="url(#simulation-graph-exp-current-test)" data-simulation-transient-current-graph-id="current-graph-load" data-source-component-id="ammeter-1" data-source-probe-id="simulation_current_probe_load" data-source-probe-name="LOAD_CURRENT" stroke-dasharray="4 8" stroke-dashoffset="4"/><path class="simulation-line" d="M 100 194 L 166.666667 116 L 233.333333 142 L 300 90" stroke="#b00020" clip-path="url(#simulation-graph-exp-current-test)" data-simulation-transient-current-graph-id="current-graph-load" data-source-component-id="ammeter-1" data-source-probe-id="simulation_current_probe_load" data-source-probe-name="LOAD_CURRENT" stroke-dasharray="4 8" stroke-dashoffset="8"/><circle class="simulation-point" cx="100" cy="194" r="2.5" fill="#b00020" clip-path="url(#simulation-graph-exp-current-test)"/><circle class="simulation-point" cx="166.666667" cy="116" r="2.5" fill="#b00020" clip-path="url(#simulation-graph-exp-current-test)"/><circle class="simulation-point" cx="233.333333" cy="142" r="2.5" fill="#b00020" clip-path="url(#simulation-graph-exp-current-test)"/><circle class="simulation-point" cx="300" cy="90" r="2.5" fill="#b00020" clip-path="url(#simulation-graph-exp-current-test)"/></g><g class="axes"><line class="axis axis-x" x1="100" y1="220" x2="300" y2="220"/><line class="axis axis-y" x1="100" y1="64" x2="100" y2="220"/><line class="axis-tick axis-tick-x" x1="100" y1="220" x2="100" y2="226"/><text class="axis-label axis-label-x" x="100" y="242" text-anchor="middle">0</text><line class="axis-tick axis-tick-x" x1="166.666667" y1="220" x2="166.666667" y2="226"/><text class="axis-label axis-label-x" x="166.666667" y="242" text-anchor="middle">1</text><line class="axis-tick axis-tick-x" x1="233.333333" y1="220" x2="233.333333" y2="226"/><text class="axis-label axis-label-x" x="233.333333" y="242" text-anchor="middle">2</text><line class="axis-tick axis-tick-x" x1="300" y1="220" x2="300" y2="226"/><text class="axis-label axis-label-x" x="300" y="242" text-anchor="middle">3</text><line class="axis-tick axis-tick-y" x1="94" y1="220" x2="100" y2="220"/><text class="axis-label axis-label-y" x="90" y="220" text-anchor="end" dominant-baseline="middle">-0.005</text><line class="axis-tick axis-tick-y" x1="94" y1="194" x2="100" y2="194"/><text class="axis-label axis-label-y" x="90" y="194" text-anchor="end" dominant-baseline="middle">0</text><line class="axis-tick axis-tick-y" x1="94" y1="168" x2="100" y2="168"/><text class="axis-label axis-label-y" x="90" y="168" text-anchor="end" dominant-baseline="middle">0.005</text><line class="axis-tick axis-tick-y" x1="94" y1="142" x2="100" y2="142"/><text class="axis-label axis-label-y" x="90" y="142" text-anchor="end" dominant-baseline="middle">0.01</text><line class="axis-tick axis-tick-y" x1="94" y1="116" x2="100" y2="116"/><text class="axis-label axis-label-y" x="90" y="116" text-anchor="end" dominant-baseline="middle">0.015</text><line class="axis-tick axis-tick-y" x1="94" y1="90" x2="100" y2="90"/><text class="axis-label axis-label-y" x="90" y="90" text-anchor="end" dominant-baseline="middle">0.02</text><line class="axis-tick axis-tick-y" x1="94" y1="64" x2="100" y2="64"/><text class="axis-label axis-label-y" x="90" y="64" text-anchor="end" dominant-baseline="middle">0.025</text><text class="axis-title axis-title-x" x="200" y="268" text-anchor="middle">Time (ms)</text><text class="axis-title axis-title-y" x="36" y="142" transform="rotate(-90 36 142)" text-anchor="middle">Current (A)</text></g><g class="legend"><g class="legend-item" transform="translate(310 64)"><line class="legend-line" x1="0" y1="0" x2="16" y2="0" stroke="#b00020"/><text class="legend-label" x="20" y="0" dominant-baseline="middle"><tspan x="20" dy="0">I(LOAD_CURRENT)</tspan></text></g></g><text class="chart-title" x="200" y="24" text-anchor="middle">Transient Current Sweep</text></svg>