<svg xmlns="http://www.w3.org/2000/svg" width="1200" height="600" style="background-color: rgb(245, 241, 237)" viewBox="0 0 1200 600" data-simulation-experiment-id="simulation_experiment_dc_current_sweep" data-simulation-experiment-name="Current Source Sweep"><style>
:root { color-scheme: light; }
svg { font-family: 'Inter', 'Helvetica Neue', Arial, sans-serif; }
.background { fill: rgb(245, 241, 237); }
.plot-background { fill: #ffffff; }
.grid-line { stroke: rgba(0, 0, 0, 0.08); stroke-width: 1; }
.axis { stroke: rgba(0, 0, 0, 0.6); stroke-width: 1.5; }
.axis-tick { stroke: rgba(0, 0, 0, 0.6); stroke-width: 1; }
.axis-label { fill: rgba(0, 0, 0, 0.75); font-size: 12px; }
.axis-title { fill: rgba(0, 0, 0, 0.9); font-size: 14px; font-weight: 600; }
.legend-label { fill: rgba(0, 0, 0, 0.75); font-size: 11px; }
.legend-line { stroke-width: 3; }
.scope-channel-card { fill: #ffffff; stroke: rgba(0, 0, 0, 0.22); stroke-width: 1; }
.scope-channel-header-text { fill: #ffffff; font-size: 14px; font-weight: 700; }
.scope-channel-detail { fill: rgba(0, 0, 0, 0.42); font-size: 14px; }
.simulation-line { fill: none; stroke-width: 2.5; }
.simulation-point { stroke-width: 0; }
.chart-title { fill: rgba(0, 0, 0, 0.85); font-size: 18px; font-weight: 600; }
</style><rect class="background" x="0" y="0" width="1200" height="600"/><defs><clipPath id="simulation-graph-simulation_experiment_dc_current_sweep"><rect x="100" y="64" width="1000" height="456"/></clipPath></defs><rect class="plot-background" x="100" y="64" width="1000" height="456"/><g class="grid"><line class="grid-line grid-line-x" x1="100" y1="64" x2="100" y2="520"/><line class="grid-line grid-line-x" x1="300" y1="64" x2="300" y2="520"/><line class="grid-line grid-line-x" x1="500" y1="64" x2="500" y2="520"/><line class="grid-line grid-line-x" x1="700" y1="64" x2="700" y2="520"/><line class="grid-line grid-line-x" x1="900" y1="64" x2="900" y2="520"/><line class="grid-line grid-line-x" x1="1100" y1="64" x2="1100" y2="520"/><line class="grid-line grid-line-y" x1="100" y1="520" x2="1100" y2="520"/><line class="grid-line grid-line-y" x1="100" y1="428.8" x2="1100" y2="428.8"/><line class="grid-line grid-line-y" x1="100" y1="337.6" x2="1100" y2="337.6"/><line class="grid-line grid-line-y" x1="100" y1="246.4" x2="1100" y2="246.4"/><line class="grid-line grid-line-y" x1="100" y1="155.2" x2="1100" y2="155.2"/><line class="grid-line grid-line-y" x1="100" y1="64" x2="1100" y2="64"/></g><g class="data-series"><path class="simulation-line" d="M 100 428.8 L 300 355.84 L 500 282.88 L 700 209.92 L 900 141.52 L 1100 127.84" stroke="#315cff" clip-path="url(#simulation-graph-simulation_experiment_dc_current_sweep)" data-simulation-transient-voltage-graph-id="simulation_dc_current_sweep_graph_vout" stroke-dasharray="4 8" stroke-dashoffset="0"/><path class="simulation-line" d="M 100 428.8 L 300 428.63584 L 500 428.47168 L 700 428.30752 L 900 428.15248 L 1100 428.116" stroke="#dc2626" clip-path="url(#simulation-graph-simulation_experiment_dc_current_sweep)" data-simulation-transient-current-graph-id="simulation_dc_current_sweep_graph_load" stroke-dasharray="4 8" stroke-dashoffset="4"/><path class="simulation-line" d="M 100 428.8 L 300 355.84 L 500 282.88 L 700 209.92 L 900 141.52 L 1100 127.84" stroke="#315cff" clip-path="url(#simulation-graph-simulation_experiment_dc_current_sweep)" data-simulation-transient-voltage-graph-id="simulation_dc_current_sweep_graph_vout" stroke-dasharray="4 8" stroke-dashoffset="4"/><path class="simulation-line" d="M 100 428.8 L 300 428.63584 L 500 428.47168 L 700 428.30752 L 900 428.15248 L 1100 428.116" stroke="#dc2626" clip-path="url(#simulation-graph-simulation_experiment_dc_current_sweep)" data-simulation-transient-current-graph-id="simulation_dc_current_sweep_graph_load" stroke-dasharray="4 8" stroke-dashoffset="8"/><path class="simulation-line" d="M 100 428.8 L 300 355.84 L 500 282.88 L 700 209.92 L 900 141.52 L 1100 127.84" stroke="#315cff" clip-path="url(#simulation-graph-simulation_experiment_dc_current_sweep)" data-simulation-transient-voltage-graph-id="simulation_dc_current_sweep_graph_vout" stroke-dasharray="4 8" stroke-dashoffset="8"/><path class="simulation-line" d="M 100 428.8 L 300 428.63584 L 500 428.47168 L 700 428.30752 L 900 428.15248 L 1100 428.116" stroke="#dc2626" clip-path="url(#simulation-graph-simulation_experiment_dc_current_sweep)" data-simulation-transient-current-graph-id="simulation_dc_current_sweep_graph_load" stroke-dasharray="4 8" stroke-dashoffset="0"/><circle class="simulation-point" cx="100" cy="428.8" r="2.5" fill="#315cff" clip-path="url(#simulation-graph-simulation_experiment_dc_current_sweep)"/><circle class="simulation-point" cx="300" cy="355.84" r="2.5" fill="#315cff" clip-path="url(#simulation-graph-simulation_experiment_dc_current_sweep)"/><circle class="simulation-point" cx="500" cy="282.88" r="2.5" fill="#315cff" clip-path="url(#simulation-graph-simulation_experiment_dc_current_sweep)"/><circle class="simulation-point" cx="700" cy="209.92" r="2.5" fill="#315cff" clip-path="url(#simulation-graph-simulation_experiment_dc_current_sweep)"/><circle class="simulation-point" cx="900" cy="141.52" r="2.5" fill="#315cff" clip-path="url(#simulation-graph-simulation_experiment_dc_current_sweep)"/><circle class="simulation-point" cx="1100" cy="127.84" r="2.5" fill="#315cff" clip-path="url(#simulation-graph-simulation_experiment_dc_current_sweep)"/><circle class="simulation-point" cx="100" cy="428.8" r="2.5" fill="#dc2626" clip-path="url(#simulation-graph-simulation_experiment_dc_current_sweep)"/><circle class="simulation-point" cx="300" cy="428.63584" r="2.5" fill="#dc2626" clip-path="url(#simulation-graph-simulation_experiment_dc_current_sweep)"/><circle class="simulation-point" cx="500" cy="428.47168" r="2.5" fill="#dc2626" clip-path="url(#simulation-graph-simulation_experiment_dc_current_sweep)"/><circle class="simulation-point" cx="700" cy="428.30752" r="2.5" fill="#dc2626" clip-path="url(#simulation-graph-simulation_experiment_dc_current_sweep)"/><circle class="simulation-point" cx="900" cy="428.15248" r="2.5" fill="#dc2626" clip-path="url(#simulation-graph-simulation_experiment_dc_current_sweep)"/><circle class="simulation-point" cx="1100" cy="428.116" r="2.5" fill="#dc2626" clip-path="url(#simulation-graph-simulation_experiment_dc_current_sweep)"/></g><g class="axes"><line class="axis axis-x" x1="100" y1="520" x2="1100" y2="520"/><line class="axis axis-y" x1="100" y1="64" x2="100" y2="520"/><line class="axis-tick axis-tick-x" x1="100" y1="520" x2="100" y2="526"/><text class="axis-label axis-label-x" x="100" y="542" text-anchor="middle">0</text><line class="axis-tick axis-tick-x" x1="300" y1="520" x2="300" y2="526"/><text class="axis-label axis-label-x" x="300" y="542" text-anchor="middle">0.002</text><line class="axis-tick axis-tick-x" x1="500" y1="520" x2="500" y2="526"/><text class="axis-label axis-label-x" x="500" y="542" text-anchor="middle">0.004</text><line class="axis-tick axis-tick-x" x1="700" y1="520" x2="700" y2="526"/><text class="axis-label axis-label-x" x="700" y="542" text-anchor="middle">0.006</text><line class="axis-tick axis-tick-x" x1="900" y1="520" x2="900" y2="526"/><text class="axis-label axis-label-x" x="900" y="542" text-anchor="middle">0.008</text><line class="axis-tick axis-tick-x" x1="1100" y1="520" x2="1100" y2="526"/><text class="axis-label axis-label-x" x="1100" y="542" text-anchor="middle">0.01</text><line class="axis-tick axis-tick-y" x1="94" y1="520" x2="100" y2="520"/><text class="axis-label axis-label-y" x="90" y="520" text-anchor="end" dominant-baseline="middle">-1</text><line class="axis-tick axis-tick-y" x1="94" y1="428.8" x2="100" y2="428.8"/><text class="axis-label axis-label-y" x="90" y="428.8" text-anchor="end" dominant-baseline="middle">0</text><line class="axis-tick axis-tick-y" x1="94" y1="337.6" x2="100" y2="337.6"/><text class="axis-label axis-label-y" x="90" y="337.6" text-anchor="end" dominant-baseline="middle">1</text><line class="axis-tick axis-tick-y" x1="94" y1="246.4" x2="100" y2="246.4"/><text class="axis-label axis-label-y" x="90" y="246.4" text-anchor="end" dominant-baseline="middle">2</text><line class="axis-tick axis-tick-y" x1="94" y1="155.2" x2="100" y2="155.2"/><text class="axis-label axis-label-y" x="90" y="155.2" text-anchor="end" dominant-baseline="middle">3</text><line class="axis-tick axis-tick-y" x1="94" y1="64" x2="100" y2="64"/><text class="axis-label axis-label-y" x="90" y="64" text-anchor="end" dominant-baseline="middle">4</text><text class="axis-title axis-title-y" x="36" y="292" transform="rotate(-90 36 292)" text-anchor="middle">Value</text><text class="axis-title axis-title-x" x="600" y="568" text-anchor="middle">DC Sweep (A)</text></g><g class="legend"><g class="legend-item" transform="translate(1110 64)"><line class="legend-line" x1="0" y1="0" x2="16" y2="0" stroke="#315cff"/><text class="legend-label" x="20" y="0" dominant-baseline="middle"><tspan x="20" dy="0">VOUT</tspan></text></g><g class="legend-item" transform="translate(1110 88)"><line class="legend-line" x1="0" y1="0" x2="16" y2="0" stroke="#dc2626"/><text class="legend-label" x="20" y="0" dominant-baseline="middle"><tspan x="20" dy="0">I(RLOAD)</tspan></text></g></g><text class="chart-title" x="600" y="24" text-anchor="middle">Current Source Sweep</text></svg>