<svg xmlns="http://www.w3.org/2000/svg" width="1200" height="600" style="background-color: rgb(245, 241, 237)" viewBox="0 0 1200 600" data-simulation-experiment-id="simulation_experiment_efficiency" data-simulation-experiment-name="TPS63802 Efficiency"><style>
:root { color-scheme: light; }
svg { font-family: 'Inter', 'Helvetica Neue', Arial, sans-serif; }
.background { fill: rgb(245, 241, 237); }
.plot-background { fill: #ffffff; }
.grid-line { stroke: rgba(0, 0, 0, 0.08); stroke-width: 1; }
.axis { stroke: rgba(0, 0, 0, 0.6); stroke-width: 1.5; }
.axis-tick { stroke: rgba(0, 0, 0, 0.6); stroke-width: 1; }
.axis-label { fill: rgba(0, 0, 0, 0.75); font-size: 12px; }
.axis-title { fill: rgba(0, 0, 0, 0.9); font-size: 14px; font-weight: 600; }
.legend-label { fill: rgba(0, 0, 0, 0.75); font-size: 11px; }
.legend-line { stroke-width: 3; }
.scope-channel-card { fill: #ffffff; stroke: rgba(0, 0, 0, 0.22); stroke-width: 1; }
.scope-channel-header-text { fill: #ffffff; font-size: 14px; font-weight: 700; }
.scope-channel-detail { fill: rgba(0, 0, 0, 0.42); font-size: 14px; }
.simulation-line { fill: none; stroke-width: 2.5; }
.simulation-point { stroke-width: 0; }
.chart-title { fill: rgba(0, 0, 0, 0.85); font-size: 18px; font-weight: 600; }
</style><rect class="background" x="0" y="0" width="1200" height="600"/><defs><clipPath id="simulation-graph-simulation_experiment_efficiency"><rect x="100" y="64" width="1000" height="456"/></clipPath></defs><rect class="plot-background" x="100" y="64" width="1000" height="456"/><g class="grid"><line class="grid-line grid-line-x" x1="100" y1="64" x2="100" y2="520"/><line class="grid-line grid-line-x" x1="433.333333" y1="64" x2="433.333333" y2="520"/><line class="grid-line grid-line-x" x1="766.666667" y1="64" x2="766.666667" y2="520"/><line class="grid-line grid-line-x" x1="1100" y1="64" x2="1100" y2="520"/><line class="grid-line grid-line-y" x1="100" y1="520" x2="1100" y2="520"/><line class="grid-line grid-line-y" x1="100" y1="444" x2="1100" y2="444"/><line class="grid-line grid-line-y" x1="100" y1="368" x2="1100" y2="368"/><line class="grid-line grid-line-y" x1="100" y1="292" x2="1100" y2="292"/><line class="grid-line grid-line-y" x1="100" y1="216" x2="1100" y2="216"/><line class="grid-line grid-line-y" x1="100" y1="140" x2="1100" y2="140"/><line class="grid-line grid-line-y" x1="100" y1="64" x2="1100" y2="64"/></g><g class="data-series"><path class="simulation-line" d="M 100 489.6 L 433.333333 246.4 L 766.666667 155.2 L 1100 200.8" stroke="#1f77b4" clip-path="url(#simulation-graph-simulation_experiment_efficiency)" data-simulation-transient-voltage-graph-id="simulation_measurement_result_efficiency_0" stroke-dasharray="4 8" stroke-dashoffset="0"/><path class="simulation-line" d="M 100 428.8 L 433.333333 200.8 L 766.666667 124.8 L 1100 155.2" stroke="#d62728" clip-path="url(#simulation-graph-simulation_experiment_efficiency)" data-simulation-transient-voltage-graph-id="simulation_measurement_result_efficiency_1" stroke-dasharray="4 8" stroke-dashoffset="4"/><path class="simulation-line" d="M 100 398.4 L 433.333333 185.6 L 766.666667 140 L 1100 185.6" stroke="#2ca02c" clip-path="url(#simulation-graph-simulation_experiment_efficiency)" data-simulation-transient-voltage-graph-id="simulation_measurement_result_efficiency_2" stroke-dasharray="4 8" stroke-dashoffset="8"/><path class="simulation-line" d="M 100 489.6 L 433.333333 246.4 L 766.666667 155.2 L 1100 200.8" stroke="#1f77b4" clip-path="url(#simulation-graph-simulation_experiment_efficiency)" data-simulation-transient-voltage-graph-id="simulation_measurement_result_efficiency_0" stroke-dasharray="4 8" stroke-dashoffset="4"/><path class="simulation-line" d="M 100 428.8 L 433.333333 200.8 L 766.666667 124.8 L 1100 155.2" stroke="#d62728" clip-path="url(#simulation-graph-simulation_experiment_efficiency)" data-simulation-transient-voltage-graph-id="simulation_measurement_result_efficiency_1" stroke-dasharray="4 8" stroke-dashoffset="8"/><path class="simulation-line" d="M 100 398.4 L 433.333333 185.6 L 766.666667 140 L 1100 185.6" stroke="#2ca02c" clip-path="url(#simulation-graph-simulation_experiment_efficiency)" data-simulation-transient-voltage-graph-id="simulation_measurement_result_efficiency_2" stroke-dasharray="4 8" stroke-dashoffset="0"/><path class="simulation-line" d="M 100 489.6 L 433.333333 246.4 L 766.666667 155.2 L 1100 200.8" stroke="#1f77b4" clip-path="url(#simulation-graph-simulation_experiment_efficiency)" data-simulation-transient-voltage-graph-id="simulation_measurement_result_efficiency_0" stroke-dasharray="4 8" stroke-dashoffset="8"/><path class="simulation-line" d="M 100 428.8 L 433.333333 200.8 L 766.666667 124.8 L 1100 155.2" stroke="#d62728" clip-path="url(#simulation-graph-simulation_experiment_efficiency)" data-simulation-transient-voltage-graph-id="simulation_measurement_result_efficiency_1" stroke-dasharray="4 8" stroke-dashoffset="0"/><path class="simulation-line" d="M 100 398.4 L 433.333333 185.6 L 766.666667 140 L 1100 185.6" stroke="#2ca02c" clip-path="url(#simulation-graph-simulation_experiment_efficiency)" data-simulation-transient-voltage-graph-id="simulation_measurement_result_efficiency_2" stroke-dasharray="4 8" stroke-dashoffset="4"/><circle class="simulation-point" cx="100" cy="489.6" r="2.5" fill="#1f77b4" clip-path="url(#simulation-graph-simulation_experiment_efficiency)"/><circle class="simulation-point" cx="433.333333" cy="246.4" r="2.5" fill="#1f77b4" clip-path="url(#simulation-graph-simulation_experiment_efficiency)"/><circle class="simulation-point" cx="766.666667" cy="155.2" r="2.5" fill="#1f77b4" clip-path="url(#simulation-graph-simulation_experiment_efficiency)"/><circle class="simulation-point" cx="1100" cy="200.8" r="2.5" fill="#1f77b4" clip-path="url(#simulation-graph-simulation_experiment_efficiency)"/><circle class="simulation-point" cx="100" cy="428.8" r="2.5" fill="#d62728" clip-path="url(#simulation-graph-simulation_experiment_efficiency)"/><circle class="simulation-point" cx="433.333333" cy="200.8" r="2.5" fill="#d62728" clip-path="url(#simulation-graph-simulation_experiment_efficiency)"/><circle class="simulation-point" cx="766.666667" cy="124.8" r="2.5" fill="#d62728" clip-path="url(#simulation-graph-simulation_experiment_efficiency)"/><circle class="simulation-point" cx="1100" cy="155.2" r="2.5" fill="#d62728" clip-path="url(#simulation-graph-simulation_experiment_efficiency)"/><circle class="simulation-point" cx="100" cy="398.4" r="2.5" fill="#2ca02c" clip-path="url(#simulation-graph-simulation_experiment_efficiency)"/><circle class="simulation-point" cx="433.333333" cy="185.6" r="2.5" fill="#2ca02c" clip-path="url(#simulation-graph-simulation_experiment_efficiency)"/><circle class="simulation-point" cx="766.666667" cy="140" r="2.5" fill="#2ca02c" clip-path="url(#simulation-graph-simulation_experiment_efficiency)"/><circle class="simulation-point" cx="1100" cy="185.6" r="2.5" fill="#2ca02c" clip-path="url(#simulation-graph-simulation_experiment_efficiency)"/></g><g class="axes"><line class="axis axis-x" x1="100" y1="520" x2="1100" y2="520"/><line class="axis axis-y" x1="100" y1="64" x2="100" y2="520"/><line class="axis-tick axis-tick-x" x1="100" y1="520" x2="100" y2="526"/><text class="axis-label axis-label-x" x="100" y="542" text-anchor="middle">0.001</text><line class="axis-tick axis-tick-x" x1="433.333333" y1="520" x2="433.333333" y2="526"/><text class="axis-label axis-label-x" x="433.333333" y="542" text-anchor="middle">0.01</text><line class="axis-tick axis-tick-x" x1="766.666667" y1="520" x2="766.666667" y2="526"/><text class="axis-label axis-label-x" x="766.666667" y="542" text-anchor="middle">0.1</text><line class="axis-tick axis-tick-x" x1="1100" y1="520" x2="1100" y2="526"/><text class="axis-label axis-label-x" x="1100" y="542" text-anchor="middle">1</text><line class="axis-tick axis-tick-y" x1="94" y1="520" x2="100" y2="520"/><text class="axis-label axis-label-y" x="90" y="520" text-anchor="end" dominant-baseline="middle">70</text><line class="axis-tick axis-tick-y" x1="94" y1="444" x2="100" y2="444"/><text class="axis-label axis-label-y" x="90" y="444" text-anchor="end" dominant-baseline="middle">75</text><line class="axis-tick axis-tick-y" x1="94" y1="368" x2="100" y2="368"/><text class="axis-label axis-label-y" x="90" y="368" text-anchor="end" dominant-baseline="middle">80</text><line class="axis-tick axis-tick-y" x1="94" y1="292" x2="100" y2="292"/><text class="axis-label axis-label-y" x="90" y="292" text-anchor="end" dominant-baseline="middle">85</text><line class="axis-tick axis-tick-y" x1="94" y1="216" x2="100" y2="216"/><text class="axis-label axis-label-y" x="90" y="216" text-anchor="end" dominant-baseline="middle">90</text><line class="axis-tick axis-tick-y" x1="94" y1="140" x2="100" y2="140"/><text class="axis-label axis-label-y" x="90" y="140" text-anchor="end" dominant-baseline="middle">95</text><line class="axis-tick axis-tick-y" x1="94" y1="64" x2="100" y2="64"/><text class="axis-label axis-label-y" x="90" y="64" text-anchor="end" dominant-baseline="middle">100</text><text class="axis-title axis-title-y" x="36" y="292" transform="rotate(-90 36 292)" text-anchor="middle">Efficiency (%)</text><text class="axis-title axis-title-x" x="600" y="568" text-anchor="middle">Load Current (A)</text></g><g class="legend"><g class="legend-item" transform="translate(1110 64)"><line class="legend-line" x1="0" y1="0" x2="16" y2="0" stroke="#1f77b4"/><text class="legend-label" x="20" y="0" dominant-baseline="middle"><tspan x="20" dy="0">1.8V</tspan></text></g><g class="legend-item" transform="translate(1110 88)"><line class="legend-line" x1="0" y1="0" x2="16" y2="0" stroke="#d62728"/><text class="legend-label" x="20" y="0" dominant-baseline="middle"><tspan x="20" dy="0">3.3V</tspan></text></g><g class="legend-item" transform="translate(1110 112)"><line class="legend-line" x1="0" y1="0" x2="16" y2="0" stroke="#2ca02c"/><text class="legend-label" x="20" y="0" dominant-baseline="middle"><tspan x="20" dy="0">5.2V</tspan></text></g></g><text class="chart-title" x="600" y="24" text-anchor="middle">TPS63802 Efficiency</text></svg>