<svg xmlns="http://www.w3.org/2000/svg" width="500" height="320" viewBox="0 0 500 320" data-simulation-experiment-id="exp-mixed-test" data-simulation-experiment-name="Transient Voltage and Current Sweep"><style>
:root { color-scheme: light; }
svg { font-family: 'Inter', 'Helvetica Neue', Arial, sans-serif; }
.background { fill: rgb(245, 241, 237); }
.plot-background { fill: #ffffff; }
.grid-line { stroke: rgba(0, 0, 0, 0.08); stroke-width: 1; }
.axis { stroke: rgba(0, 0, 0, 0.6); stroke-width: 1.5; }
.axis-tick { stroke: rgba(0, 0, 0, 0.6); stroke-width: 1; }
.axis-label { fill: rgba(0, 0, 0, 0.75); font-size: 12px; }
.axis-title { fill: rgba(0, 0, 0, 0.9); font-size: 14px; font-weight: 600; }
.legend-label { fill: rgba(0, 0, 0, 0.75); font-size: 11px; }
.legend-line { stroke-width: 3; }
.simulation-line { fill: none; stroke-width: 2.5; }
.simulation-point { stroke-width: 0; }
.chart-title { fill: rgba(0, 0, 0, 0.85); font-size: 18px; font-weight: 600; }
</style><rect class="background" x="0" y="0" width="500" height="320"/><defs><clipPath id="simulation-graph-exp-mixed-test"><rect x="100" y="64" width="300" height="176"/></clipPath></defs><rect class="plot-background" x="100" y="64" width="300" height="176"/><g class="grid"><line class="grid-line grid-line-x" x1="100" y1="64" x2="100" y2="240"/><line class="grid-line grid-line-x" x1="175" y1="64" x2="175" y2="240"/><line class="grid-line grid-line-x" x1="250" y1="64" x2="250" y2="240"/><line class="grid-line grid-line-x" x1="325" y1="64" x2="325" y2="240"/><line class="grid-line grid-line-x" x1="400" y1="64" x2="400" y2="240"/><line class="grid-line grid-line-y" x1="100" y1="240" x2="400" y2="240"/><line class="grid-line grid-line-y" x1="100" y1="204.8" x2="400" y2="204.8"/><line class="grid-line grid-line-y" x1="100" y1="169.6" x2="400" y2="169.6"/><line class="grid-line grid-line-y" x1="100" y1="134.4" x2="400" y2="134.4"/><line class="grid-line grid-line-y" x1="100" y1="99.2" x2="400" y2="99.2"/><line class="grid-line grid-line-y" x1="100" y1="64" x2="400" y2="64"/></g><g class="data-series"><path class="simulation-line" d="M 100 204.8 L 175 141.44 L 250 88.64 L 325 95.68 L 400 88.64" stroke="#315cff" clip-path="url(#simulation-graph-exp-mixed-test)" data-simulation-transient-voltage-graph-id="voltage-graph-vout" data-source-component-id="voltage-probe-1" data-source-probe-id="simulation_voltage_probe_vout" data-source-probe-name="VOUT" stroke-dasharray="4 8" stroke-dashoffset="0"/><path class="simulation-line" d="M 100 204.8 L 175 204.3776 L 250 204.1664 L 325 204.4128 L 400 204.2368" stroke="#b00020" clip-path="url(#simulation-graph-exp-mixed-test)" data-simulation-transient-current-graph-id="current-graph-load" data-source-component-id="ammeter-1" data-source-probe-id="simulation_current_probe_load" data-source-probe-name="LOAD_CURRENT" stroke-dasharray="4 8" stroke-dashoffset="4"/><path class="simulation-line" d="M 100 204.8 L 175 141.44 L 250 88.64 L 325 95.68 L 400 88.64" stroke="#315cff" clip-path="url(#simulation-graph-exp-mixed-test)" data-simulation-transient-voltage-graph-id="voltage-graph-vout" data-source-component-id="voltage-probe-1" data-source-probe-id="simulation_voltage_probe_vout" data-source-probe-name="VOUT" stroke-dasharray="4 8" stroke-dashoffset="4"/><path class="simulation-line" d="M 100 204.8 L 175 204.3776 L 250 204.1664 L 325 204.4128 L 400 204.2368" stroke="#b00020" clip-path="url(#simulation-graph-exp-mixed-test)" data-simulation-transient-current-graph-id="current-graph-load" data-source-component-id="ammeter-1" data-source-probe-id="simulation_current_probe_load" data-source-probe-name="LOAD_CURRENT" stroke-dasharray="4 8" stroke-dashoffset="8"/><path class="simulation-line" d="M 100 204.8 L 175 141.44 L 250 88.64 L 325 95.68 L 400 88.64" stroke="#315cff" clip-path="url(#simulation-graph-exp-mixed-test)" data-simulation-transient-voltage-graph-id="voltage-graph-vout" data-source-component-id="voltage-probe-1" data-source-probe-id="simulation_voltage_probe_vout" data-source-probe-name="VOUT" stroke-dasharray="4 8" stroke-dashoffset="8"/><path class="simulation-line" d="M 100 204.8 L 175 204.3776 L 250 204.1664 L 325 204.4128 L 400 204.2368" stroke="#b00020" clip-path="url(#simulation-graph-exp-mixed-test)" data-simulation-transient-current-graph-id="current-graph-load" data-source-component-id="ammeter-1" data-source-probe-id="simulation_current_probe_load" data-source-probe-name="LOAD_CURRENT" stroke-dasharray="4 8" stroke-dashoffset="0"/><circle class="simulation-point" cx="100" cy="204.8" r="2.5" fill="#315cff" clip-path="url(#simulation-graph-exp-mixed-test)"/><circle class="simulation-point" cx="175" cy="141.44" r="2.5" fill="#315cff" clip-path="url(#simulation-graph-exp-mixed-test)"/><circle class="simulation-point" cx="250" cy="88.64" r="2.5" fill="#315cff" clip-path="url(#simulation-graph-exp-mixed-test)"/><circle class="simulation-point" cx="325" cy="95.68" r="2.5" fill="#315cff" clip-path="url(#simulation-graph-exp-mixed-test)"/><circle class="simulation-point" cx="400" cy="88.64" r="2.5" fill="#315cff" clip-path="url(#simulation-graph-exp-mixed-test)"/><circle class="simulation-point" cx="100" cy="204.8" r="2.5" fill="#b00020" clip-path="url(#simulation-graph-exp-mixed-test)"/><circle class="simulation-point" cx="175" cy="204.3776" r="2.5" fill="#b00020" clip-path="url(#simulation-graph-exp-mixed-test)"/><circle class="simulation-point" cx="250" cy="204.1664" r="2.5" fill="#b00020" clip-path="url(#simulation-graph-exp-mixed-test)"/><circle class="simulation-point" cx="325" cy="204.4128" r="2.5" fill="#b00020" clip-path="url(#simulation-graph-exp-mixed-test)"/><circle class="simulation-point" cx="400" cy="204.2368" r="2.5" fill="#b00020" clip-path="url(#simulation-graph-exp-mixed-test)"/></g><g class="axes"><line class="axis axis-x" x1="100" y1="240" x2="400" y2="240"/><line class="axis axis-y" x1="100" y1="64" x2="100" y2="240"/><line class="axis-tick axis-tick-x" x1="100" y1="240" x2="100" y2="246"/><text class="axis-label axis-label-x" x="100" y="262" text-anchor="middle">0</text><line class="axis-tick axis-tick-x" x1="175" y1="240" x2="175" y2="246"/><text class="axis-label axis-label-x" x="175" y="262" text-anchor="middle">1</text><line class="axis-tick axis-tick-x" x1="250" y1="240" x2="250" y2="246"/><text class="axis-label axis-label-x" x="250" y="262" text-anchor="middle">2</text><line class="axis-tick axis-tick-x" x1="325" y1="240" x2="325" y2="246"/><text class="axis-label axis-label-x" x="325" y="262" text-anchor="middle">3</text><line class="axis-tick axis-tick-x" x1="400" y1="240" x2="400" y2="246"/><text class="axis-label axis-label-x" x="400" y="262" text-anchor="middle">4</text><line class="axis-tick axis-tick-y" x1="94" y1="240" x2="100" y2="240"/><text class="axis-label axis-label-y" x="90" y="240" text-anchor="end" dominant-baseline="middle">-1</text><line class="axis-tick axis-tick-y" x1="94" y1="204.8" x2="100" y2="204.8"/><text class="axis-label axis-label-y" x="90" y="204.8" text-anchor="end" dominant-baseline="middle">0</text><line class="axis-tick axis-tick-y" x1="94" y1="169.6" x2="100" y2="169.6"/><text class="axis-label axis-label-y" x="90" y="169.6" text-anchor="end" dominant-baseline="middle">1</text><line class="axis-tick axis-tick-y" x1="94" y1="134.4" x2="100" y2="134.4"/><text class="axis-label axis-label-y" x="90" y="134.4" text-anchor="end" dominant-baseline="middle">2</text><line class="axis-tick axis-tick-y" x1="94" y1="99.2" x2="100" y2="99.2"/><text class="axis-label axis-label-y" x="90" y="99.2" text-anchor="end" dominant-baseline="middle">3</text><line class="axis-tick axis-tick-y" x1="94" y1="64" x2="100" y2="64"/><text class="axis-label axis-label-y" x="90" y="64" text-anchor="end" dominant-baseline="middle">4</text><text class="axis-title axis-title-x" x="250" y="288" text-anchor="middle">Time (ms)</text><text class="axis-title axis-title-y" x="36" y="152" transform="rotate(-90 36 152)" text-anchor="middle">Value</text></g><g class="legend"><g class="legend-item" transform="translate(410 64)"><line class="legend-line" x1="0" y1="0" x2="16" y2="0" stroke="#315cff"/><text class="legend-label" x="20" y="0" dominant-baseline="middle"><tspan x="20" dy="0">V(VOUT)</tspan></text></g><g class="legend-item" transform="translate(410 88)"><line class="legend-line" x1="0" y1="0" x2="16" y2="0" stroke="#b00020"/><text class="legend-label" x="20" y="0" dominant-baseline="middle"><tspan x="20" dy="0">I(LOAD_CURRENT)</tspan></text></g></g><text class="chart-title" x="250" y="24" text-anchor="middle">Transient Voltage and Current Sweep</text></svg>